<svg width="32" height="32" xmlns="http://www.w3.org/2000/svg">

 <g>
  <title>background</title>
  <rect fill="none" id="canvas_background" height="402" width="582" y="-1" x="-1"/>
 </g>
 <g>
  <title>Layer 1</title>
  <path stroke-miterlimit="10" stroke-linejoin="round" stroke-linecap="round" stroke-width="2" stroke="#ffffff" fill="none" id="svg_1" d="m4,17c0,-6.6 5.4,-12 12,-12s12,5.4 12,12" class="st0"/>
  <rect stroke-miterlimit="10" stroke-linejoin="round" stroke-linecap="round" stroke-width="2" stroke="#ffffff" fill="none" id="svg_2" y="16" x="3" width="2" height="2" class="st0"/>
  <rect stroke-miterlimit="10" stroke-linejoin="round" stroke-linecap="round" stroke-width="2" stroke="#ffffff" fill="none" id="svg_3" y="16" x="27" width="2" height="2" class="st0"/>
  <rect stroke-miterlimit="10" stroke-linejoin="round" stroke-linecap="round" stroke-width="2" stroke="#ffffff" fill="none" id="svg_4" y="4" x="15" width="2" height="2" class="st0"/>
  <circle stroke-miterlimit="10" stroke-linejoin="round" stroke-linecap="round" stroke-width="2" stroke="#ffffff" fill="none" id="svg_5" r="1" cy="5" cx="4" class="st0"/>
  <circle stroke-miterlimit="10" stroke-linejoin="round" stroke-linecap="round" stroke-width="2" stroke="#ffffff" fill="none" id="svg_6" r="1" cy="5" cx="28" class="st0"/>
  <line stroke-miterlimit="10" stroke-linejoin="round" stroke-linecap="round" stroke-width="2" stroke="#ffffff" fill="none" id="svg_7" y2="5" y1="5" x2="28" x1="4" class="st0"/>
  <path stroke-miterlimit="10" stroke-linejoin="round" stroke-linecap="round" stroke-width="2" stroke="#ffffff" fill="none" id="svg_8" d="m16,10l-6,9.2c1.6,1.8 2.8,4.1 3.4,6.8l2.6,0l2.6,0c0.6,-2.7 1.8,-5.1 3.4,-6.8l-6,-9.2z" class="st0"/>
  <line stroke-miterlimit="10" stroke-linejoin="round" stroke-linecap="round" stroke-width="2" stroke="#ffffff" fill="none" id="svg_9" y2="10.3" y1="17" x2="16" x1="16" class="st0"/>
  <circle stroke-miterlimit="10" stroke-linejoin="round" stroke-linecap="round" stroke-width="2" stroke="#ffffff" fill="none" id="svg_10" r="2" cy="19" cx="16" class="st0"/>
  <rect stroke-miterlimit="10" stroke-linejoin="round" stroke-linecap="round" stroke-width="2" stroke="#ffffff" fill="none" id="svg_11" y="26" x="13" width="6" height="3" class="st0"/>
 </g>
</svg>